# xmcd
#
# Track frame offsets:
#	187
#	13742
#	28710
#	47512
#	66077
#	84230
#	99537
#	109527
#	130967
#	146952
#	168847
#	185327
#
# Disc length: 2651 seconds
#
# Revision: 1
# Processed by: cddbd v1.5.1PL2 Copyright (c) Steve Scherf et al.
# Submitted via: dBpowerAMP V4.0
#
DISCID=990a590c
DTITLE=Various Artist - Greatest Hits Volume 2
DYEAR=1983
DGENRE=Country
TTITLE0=John Denver - Annie's Song
TTITLE1=John Denver - Welcome To My Morning
TTITLE2=John Denver and Olivia Newton John - Fly Away
TTITLE3=John Denver - Like A Sad Song
TTITLE4=John Denver - Looking For Space
TTITLE5=John Denver - Thank God I'm A Country Boy
TTITLE6=John Denver - Grandma's Feather Bed
TTITLE7=John Denver - Back Home Again
TTITLE8=John Denver - I'm Sorry
TTITLE9=John Denver - My Sweet Lady
TTITLE10=John Denver - Calypso
TTITLE11=John Denver - This Old Guitar
EXTD=
EXTT0=
EXTT1=
EXTT2=
EXTT3=
EXTT4=
EXTT5=
EXTT6=
EXTT7=
EXTT8=
EXTT9=
EXTT10=
EXTT11=
PLAYORDER=
